My file sizes are slightly larger than most 

posters because in MHO it looks slightly better on 

a large screen TV. I like how it looks on my large screen 

TV. I can only load 3 one hour shows on a DVD 

instead of four, but I prefer a little more 

quality. Enjoy and please share.			

							

							

							

							

						

**************************************************

**************************************************

**************************************************

**************************************************

****							

							

							

							

							

							

							

CSI_NY_S07_E19_720p_TTL.avi
Format                           : AVI
Format/Info                      : Audio Video 

Interleave
Format profile                   : OpenDML
File size                        : 1.32 GiB
Duration                         : 1h 22mn
Overall bit rate                 : 2 295 Kbps
Movie name                       : 

CSI_NY_S07_E19_720p_TTL.mpg
Director                         : 

created.with.SUPER(C).v2010.bld.37
Writing application              : SUPER(C)   

Video
ID                               : 0
Format                           : MPEG-4 Visual
Format profile                   : Simple@L3
Format settings, BVOP            : No
Format settings, QPel            : No
Format settings, GMC             : No warppoints
Format settings, Matrix          : Default (H.263)
Codec ID                         : XVID
Codec ID/Hint                    : XviD
Duration                         : 41mn 10s
Bit rate                         : 4 462 Kbps
Width                            : 1 280 pixels
Height                           : 720 pixels
Display aspect ratio             : 16:9
Frame rate                       : 29.970 fps
Color space                      : YUV
Chroma subsampling               : 4:2:0
Bit depth                        : 8 bits
Scan type                        : Progressive
Bits/(Pixel*Frame)               : 0.162
Stream size                      : 1.28 GiB (97%)
Writing library                  : XviD 1.1.2 (UTC 

2006-11-01)

Audio
ID                               : 1
Format                           : MPEG Audio
Format version                   : Version 2
Format profile                   : Layer 3
Mode                             : Joint stereo
Codec ID                         : 55
Codec ID/Hint                    : MP3
Duration                         : 1h 22mn
Bit rate mode                    : Constant
Bit rate                         : 112 Kbps
Channel(s)                       : 2 channels
Sampling rate                    : 22.05 KHz
Stream size                      : 33.0 MiB (2%)
Alignment                        : Aligned on 

interleaves
Interleave, duration             : 26 ms (0.78 

video frame)
Interleave, preload duration     : 26 ms
Writing library                  : LAME3.98

